<?xml version="1.0" encoding="UTF-8" standalone="no"?>
<!DOCTYPE svg PUBLIC "-//W3C//DTD SVG 1.1//EN"
 "http://www.w3.org/Graphics/SVG/1.1/DTD/svg11.dtd">
<!-- Generated by graphviz version 12.1.0 (20240811.2233)
 -->
<!-- Title: src/utils/error_format.h Pages: 1 -->
<svg width="297pt" height="136pt"
 viewBox="0.00 0.00 297.25 135.50" xmlns="http://www.w3.org/2000/svg" xmlns:xlink="http://www.w3.org/1999/xlink">

<svg id="main" version="1.1" xmlns="http://www.w3.org/2000/svg" xmlns:xlink="http://www.w3.org/1999/xlink" xml:space="preserve">

<style type="text/css"><![CDATA[
.node, .edge {opacity: 0.7;}
.node.selected, .edge.selected {opacity: 1;}
.edge:hover path { stroke: red; }
.edge:hover polygon { stroke: red; fill: red; }
]]></style>
<script type="application/ecmascript" xlink:href="svg.min.js"/>
<svg id="graph" class="graph">
<g id="graph0" class="graph" transform="scale(1 1) rotate(0) translate(4 131.5)">
<title>src/utils/error_format.h</title>
<!-- Node1 -->
<g id="Node000001" class="node">
<title>Node1</title>
<g id="a_Node000001"><a xlink:title="Functions for simplified manipulation with callback errors.">
<polygon fill="#999999" stroke="#666666" points="154.38,-127.5 40.88,-127.5 40.88,-109 154.38,-109 154.38,-127.5"/>
<text text-anchor="middle" x="97.62" y="-114" font-family="Helvetica,sans-Serif" font-size="10.00">src/utils/error_format.h</text>
</a>
</g>
</g>
<!-- Node2 -->
<g id="Node000002" class="node">
<title>Node2</title>
<g id="a_Node000002"><a xlink:title=" ">
<polygon fill="#e0e0e0" stroke="#999999" points="87.25,-73 0,-73 0,-54.5 87.25,-54.5 87.25,-73"/>
<text text-anchor="middle" x="43.62" y="-59.5" font-family="Helvetica,sans-Serif" font-size="10.00">libyang/libyang.h</text>
</a>
</g>
</g>
<!-- Node1&#45;&gt;Node2 -->
<g id="edge1_Node000001_Node000002" class="edge">
<title>Node1&#45;&gt;Node2</title>
<g id="a_edge1_Node000001_Node000002"><a xlink:title=" ">
<path fill="none" stroke="#63b8ff" d="M88.71,-108.58C81.08,-101.17 69.89,-90.28 60.57,-81.22"/>
<polygon fill="#63b8ff" stroke="#63b8ff" points="63.07,-78.77 53.46,-74.31 58.19,-83.79 63.07,-78.77"/>
</a>
</g>
</g>
<!-- Node3 -->
<g id="Node000003" class="node">
<title>Node3</title>
<g id="a_Node000003"><a xlink:href="sysrepo__types_8h.html" target="_top" xlink:title="public sysrepo types header">
<polygon fill="white" stroke="#666666" points="200.38,-73 104.88,-73 104.88,-54.5 200.38,-54.5 200.38,-73"/>
<text text-anchor="middle" x="152.62" y="-59.5" font-family="Helvetica,sans-Serif" font-size="10.00">../sysrepo_types.h</text>
</a>
</g>
</g>
<!-- Node1&#45;&gt;Node3 -->
<g id="edge2_Node000001_Node000003" class="edge">
<title>Node1&#45;&gt;Node3</title>
<g id="a_edge2_Node000001_Node000003"><a xlink:title=" ">
<path fill="none" stroke="#63b8ff" d="M106.71,-108.58C114.56,-101.09 126.11,-90.06 135.66,-80.94"/>
<polygon fill="#63b8ff" stroke="#63b8ff" points="137.8,-83.74 142.62,-74.3 132.97,-78.68 137.8,-83.74"/>
</a>
</g>
</g>
<!-- Node4 -->
<g id="Node000004" class="node">
<title>Node4</title>
<g id="a_Node000004"><a xlink:title=" ">
<polygon fill="#e0e0e0" stroke="#999999" points="68.12,-18.5 25.12,-18.5 25.12,0 68.12,0 68.12,-18.5"/>
<text text-anchor="middle" x="46.62" y="-5" font-family="Helvetica,sans-Serif" font-size="10.00">fcntl.h</text>
</a>
</g>
</g>
<!-- Node3&#45;&gt;Node4 -->
<g id="edge3_Node000003_Node000004" class="edge">
<title>Node3&#45;&gt;Node4</title>
<g id="a_edge3_Node000003_Node000004"><a xlink:title=" ">
<path fill="none" stroke="#63b8ff" d="M135.12,-54.08C118.63,-45.91 93.64,-33.54 74.42,-24.02"/>
<polygon fill="#63b8ff" stroke="#63b8ff" points="76.03,-20.91 65.51,-19.6 72.92,-27.18 76.03,-20.91"/>
</a>
</g>
</g>
<!-- Node5 -->
<g id="Node000005" class="node">
<title>Node5</title>
<g id="a_Node000005"><a xlink:title=" ">
<polygon fill="#e0e0e0" stroke="#999999" points="145,-18.5 86.25,-18.5 86.25,0 145,0 145,-18.5"/>
<text text-anchor="middle" x="115.62" y="-5" font-family="Helvetica,sans-Serif" font-size="10.00">inttypes.h</text>
</a>
</g>
</g>
<!-- Node3&#45;&gt;Node5 -->
<g id="edge4_Node000003_Node000005" class="edge">
<title>Node3&#45;&gt;Node5</title>
<g id="a_edge4_Node000003_Node000005"><a xlink:title=" ">
<path fill="none" stroke="#63b8ff" d="M146.52,-54.08C141.56,-47.05 134.41,-36.9 128.23,-28.14"/>
<polygon fill="#63b8ff" stroke="#63b8ff" points="131.11,-26.15 122.49,-20 125.39,-30.19 131.11,-26.15"/>
</a>
</g>
</g>
<!-- Node6 -->
<g id="Node000006" class="node">
<title>Node6</title>
<g id="a_Node000006"><a xlink:title=" ">
<polygon fill="#e0e0e0" stroke="#999999" points="213.88,-18.5 163.38,-18.5 163.38,0 213.88,0 213.88,-18.5"/>
<text text-anchor="middle" x="188.62" y="-5" font-family="Helvetica,sans-Serif" font-size="10.00">stddef.h</text>
</a>
</g>
</g>
<!-- Node3&#45;&gt;Node6 -->
<g id="edge5_Node000003_Node000006" class="edge">
<title>Node3&#45;&gt;Node6</title>
<g id="a_edge5_Node000003_Node000006"><a xlink:title=" ">
<path fill="none" stroke="#63b8ff" d="M158.57,-54.08C163.39,-47.05 170.35,-36.9 176.36,-28.14"/>
<polygon fill="#63b8ff" stroke="#63b8ff" points="179.17,-30.23 181.93,-20.01 173.39,-26.27 179.17,-30.23"/>
</a>
</g>
</g>
<!-- Node7 -->
<g id="Node000007" class="node">
<title>Node7</title>
<g id="a_Node000007"><a xlink:title=" ">
<polygon fill="#e0e0e0" stroke="#999999" points="289.25,-18.5 232,-18.5 232,0 289.25,0 289.25,-18.5"/>
<text text-anchor="middle" x="260.62" y="-5" font-family="Helvetica,sans-Serif" font-size="10.00">sys/stat.h</text>
</a>
</g>
</g>
<!-- Node3&#45;&gt;Node7 -->
<g id="edge6_Node000003_Node000007" class="edge">
<title>Node3&#45;&gt;Node7</title>
<g id="a_edge6_Node000003_Node000007"><a xlink:title=" ">
<path fill="none" stroke="#63b8ff" d="M170.46,-54.08C187.34,-45.87 212.96,-33.42 232.58,-23.89"/>
<polygon fill="#63b8ff" stroke="#63b8ff" points="233.94,-27.11 241.4,-19.59 230.88,-20.82 233.94,-27.11"/>
</a>
</g>
</g>
</g>
</svg>
</svg>

<style type='text/css'>
<![CDATA[
[data-mouse-over-selected='false'] { opacity: 0.7; }
[data-mouse-over-selected='true']  { opacity: 1.0; }
]]>
</style>
<script type="application/ecmascript"><![CDATA[
document.addEventListener('DOMContentLoaded', (event) => {
  highlightEdges();
  highlightAdjacentNodes();
});
]]></script>
</svg>
