<?xml version="1.0" encoding="UTF-8" standalone="no"?>
<!DOCTYPE svg PUBLIC "-//W3C//DTD SVG 1.1//EN"
 "http://www.w3.org/Graphics/SVG/1.1/DTD/svg11.dtd">
<!-- Generated by graphviz version 12.1.0 (20240811.2233)
 -->
<!-- Title: src/utils/netconf_acm.h Pages: 1 -->
<svg width="638pt" height="190pt"
 viewBox="0.00 0.00 638.38 190.00" xmlns="http://www.w3.org/2000/svg" xmlns:xlink="http://www.w3.org/1999/xlink">
<g id="graph0" class="graph" transform="scale(1 1) rotate(0) translate(4 186)">
<title>src/utils/netconf_acm.h</title>
<!-- Node1 -->
<g id="Node000001" class="node">
<title>Node1</title>
<g id="a_Node000001"><a xlink:title="NACM functionality header.">
<polygon fill="#999999" stroke="#666666" points="295.75,-182 177.75,-182 177.75,-163.5 295.75,-163.5 295.75,-182"/>
<text text-anchor="middle" x="236.75" y="-168.5" font-family="Helvetica,sans-Serif" font-size="10.00">src/utils/netconf_acm.h</text>
</a>
</g>
</g>
<!-- Node2 -->
<g id="Node000002" class="node">
<title>Node2</title>
<g id="a_Node000002"><a xlink:href="sysrepo_8h.html" target="_top" xlink:title="public API sysrepo header">
<polygon fill="white" stroke="#666666" points="269.88,-127.5 203.62,-127.5 203.62,-109 269.88,-109 269.88,-127.5"/>
<text text-anchor="middle" x="236.75" y="-114" font-family="Helvetica,sans-Serif" font-size="10.00">../sysrepo.h</text>
</a>
</g>
</g>
<!-- Node1&#45;&gt;Node2 -->
<g id="edge1_Node000001_Node000002" class="edge">
<title>Node1&#45;&gt;Node2</title>
<g id="a_edge1_Node000001_Node000002"><a xlink:title=" ">
<path fill="none" stroke="#63b8ff" d="M236.75,-163.08C236.75,-156.58 236.75,-147.42 236.75,-139.16"/>
<polygon fill="#63b8ff" stroke="#63b8ff" points="240.25,-139.27 236.75,-129.27 233.25,-139.27 240.25,-139.27"/>
</a>
</g>
</g>
<!-- Node3 -->
<g id="Node000003" class="node">
<title>Node3</title>
<g id="a_Node000003"><a xlink:title=" ">
<polygon fill="#e0e0e0" stroke="#999999" points="47.5,-73 0,-73 0,-54.5 47.5,-54.5 47.5,-73"/>
<text text-anchor="middle" x="23.75" y="-59.5" font-family="Helvetica,sans-Serif" font-size="10.00">stdint.h</text>
</a>
</g>
</g>
<!-- Node2&#45;&gt;Node3 -->
<g id="edge2_Node000002_Node000003" class="edge">
<title>Node2&#45;&gt;Node3</title>
<g id="a_edge2_Node000002_Node000003"><a xlink:title=" ">
<path fill="none" stroke="#63b8ff" d="M203.23,-109.05C169.27,-100.74 114.91,-87.4 58.77,-73.49"/>
<polygon fill="#63b8ff" stroke="#63b8ff" points="59.92,-70.17 49.37,-71.16 58.23,-76.97 59.92,-70.17"/>
</a>
</g>
</g>
<!-- Node4 -->
<g id="Node000004" class="node">
<title>Node4</title>
<g id="a_Node000004"><a xlink:title=" ">
<polygon fill="#e0e0e0" stroke="#999999" points="113.5,-73 66,-73 66,-54.5 113.5,-54.5 113.5,-73"/>
<text text-anchor="middle" x="89.75" y="-59.5" font-family="Helvetica,sans-Serif" font-size="10.00">stdlib.h</text>
</a>
</g>
</g>
<!-- Node2&#45;&gt;Node4 -->
<g id="edge3_Node000002_Node000004" class="edge">
<title>Node2&#45;&gt;Node4</title>
<g id="a_edge3_Node000002_Node000004"><a xlink:title=" ">
<path fill="none" stroke="#63b8ff" d="M212.48,-108.58C188.39,-99.98 151.26,-86.72 124.15,-77.04"/>
<polygon fill="#63b8ff" stroke="#63b8ff" points="125.59,-73.83 115,-73.77 123.24,-80.43 125.59,-73.83"/>
</a>
</g>
</g>
<!-- Node5 -->
<g id="Node000005" class="node">
<title>Node5</title>
<g id="a_Node000005"><a xlink:title=" ">
<polygon fill="#e0e0e0" stroke="#999999" points="197.5,-73 132,-73 132,-54.5 197.5,-54.5 197.5,-73"/>
<text text-anchor="middle" x="164.75" y="-59.5" font-family="Helvetica,sans-Serif" font-size="10.00">sys/types.h</text>
</a>
</g>
</g>
<!-- Node2&#45;&gt;Node5 -->
<g id="edge4_Node000002_Node000005" class="edge">
<title>Node2&#45;&gt;Node5</title>
<g id="a_edge4_Node000002_Node000005"><a xlink:title=" ">
<path fill="none" stroke="#63b8ff" d="M224.86,-108.58C214.17,-100.78 198.22,-89.15 185.44,-79.83"/>
<polygon fill="#63b8ff" stroke="#63b8ff" points="187.78,-77.21 177.64,-74.15 183.66,-82.87 187.78,-77.21"/>
</a>
</g>
</g>
<!-- Node6 -->
<g id="Node000006" class="node">
<title>Node6</title>
<g id="a_Node000006"><a xlink:title=" ">
<polygon fill="#e0e0e0" stroke="#999999" points="258.25,-73 215.25,-73 215.25,-54.5 258.25,-54.5 258.25,-73"/>
<text text-anchor="middle" x="236.75" y="-59.5" font-family="Helvetica,sans-Serif" font-size="10.00">time.h</text>
</a>
</g>
</g>
<!-- Node2&#45;&gt;Node6 -->
<g id="edge5_Node000002_Node000006" class="edge">
<title>Node2&#45;&gt;Node6</title>
<g id="a_edge5_Node000002_Node000006"><a xlink:title=" ">
<path fill="none" stroke="#63b8ff" d="M236.75,-108.58C236.75,-102.08 236.75,-92.92 236.75,-84.66"/>
<polygon fill="#63b8ff" stroke="#63b8ff" points="240.25,-84.77 236.75,-74.77 233.25,-84.77 240.25,-84.77"/>
</a>
</g>
</g>
<!-- Node7 -->
<g id="Node000007" class="node">
<title>Node7</title>
<g id="a_Node000007"><a xlink:title=" ">
<polygon fill="#e0e0e0" stroke="#999999" points="327,-73 276.5,-73 276.5,-54.5 327,-54.5 327,-73"/>
<text text-anchor="middle" x="301.75" y="-59.5" font-family="Helvetica,sans-Serif" font-size="10.00">unistd.h</text>
</a>
</g>
</g>
<!-- Node2&#45;&gt;Node7 -->
<g id="edge6_Node000002_Node000007" class="edge">
<title>Node2&#45;&gt;Node7</title>
<g id="a_edge6_Node000002_Node000007"><a xlink:title=" ">
<path fill="none" stroke="#63b8ff" d="M247.48,-108.58C256.95,-100.94 270.97,-89.61 282.39,-80.38"/>
<polygon fill="#63b8ff" stroke="#63b8ff" points="284.46,-83.22 290.04,-74.21 280.06,-77.77 284.46,-83.22"/>
</a>
</g>
</g>
<!-- Node8 -->
<g id="Node000008" class="node">
<title>Node8</title>
<g id="a_Node000008"><a xlink:title=" ">
<polygon fill="#e0e0e0" stroke="#999999" points="432.38,-73 345.12,-73 345.12,-54.5 432.38,-54.5 432.38,-73"/>
<text text-anchor="middle" x="388.75" y="-59.5" font-family="Helvetica,sans-Serif" font-size="10.00">libyang/libyang.h</text>
</a>
</g>
</g>
<!-- Node2&#45;&gt;Node8 -->
<g id="edge7_Node000002_Node000008" class="edge">
<title>Node2&#45;&gt;Node8</title>
<g id="a_edge7_Node000002_Node000008"><a xlink:title=" ">
<path fill="none" stroke="#63b8ff" d="M261.85,-108.58C286.71,-99.99 325.03,-86.76 353.05,-77.08"/>
<polygon fill="#63b8ff" stroke="#63b8ff" points="353.87,-80.5 362.18,-73.93 351.59,-73.88 353.87,-80.5"/>
</a>
</g>
</g>
<!-- Node9 -->
<g id="Node000009" class="node">
<title>Node9</title>
<g id="a_Node000009"><a xlink:href="sysrepo__types_8h.html" target="_top" xlink:title="public sysrepo types header">
<polygon fill="white" stroke="#666666" points="537,-73 450.5,-73 450.5,-54.5 537,-54.5 537,-73"/>
<text text-anchor="middle" x="493.75" y="-59.5" font-family="Helvetica,sans-Serif" font-size="10.00">sysrepo_types.h</text>
</a>
</g>
</g>
<!-- Node2&#45;&gt;Node9 -->
<g id="edge8_Node000002_Node000009" class="edge">
<title>Node2&#45;&gt;Node9</title>
<g id="a_edge8_Node000002_Node000009"><a xlink:title=" ">
<path fill="none" stroke="#63b8ff" d="M270.35,-110.39C313.48,-101.58 388.85,-86.18 440,-75.73"/>
<polygon fill="#63b8ff" stroke="#63b8ff" points="440.58,-79.18 449.68,-73.75 439.18,-72.32 440.58,-79.18"/>
</a>
</g>
</g>
<!-- Node10 -->
<g id="Node000010" class="node">
<title>Node10</title>
<g id="a_Node000010"><a xlink:title=" ">
<polygon fill="#e0e0e0" stroke="#999999" points="409.25,-18.5 366.25,-18.5 366.25,0 409.25,0 409.25,-18.5"/>
<text text-anchor="middle" x="387.75" y="-5" font-family="Helvetica,sans-Serif" font-size="10.00">fcntl.h</text>
</a>
</g>
</g>
<!-- Node9&#45;&gt;Node10 -->
<g id="edge9_Node000009_Node000010" class="edge">
<title>Node9&#45;&gt;Node10</title>
<g id="a_edge9_Node000009_Node000010"><a xlink:title=" ">
<path fill="none" stroke="#63b8ff" d="M476.25,-54.08C459.75,-45.91 434.77,-33.54 415.55,-24.02"/>
<polygon fill="#63b8ff" stroke="#63b8ff" points="417.15,-20.91 406.64,-19.6 414.04,-27.18 417.15,-20.91"/>
</a>
</g>
</g>
<!-- Node11 -->
<g id="Node000011" class="node">
<title>Node11</title>
<g id="a_Node000011"><a xlink:title=" ">
<polygon fill="#e0e0e0" stroke="#999999" points="486.12,-18.5 427.38,-18.5 427.38,0 486.12,0 486.12,-18.5"/>
<text text-anchor="middle" x="456.75" y="-5" font-family="Helvetica,sans-Serif" font-size="10.00">inttypes.h</text>
</a>
</g>
</g>
<!-- Node9&#45;&gt;Node11 -->
<g id="edge10_Node000009_Node000011" class="edge">
<title>Node9&#45;&gt;Node11</title>
<g id="a_edge10_Node000009_Node000011"><a xlink:title=" ">
<path fill="none" stroke="#63b8ff" d="M487.64,-54.08C482.68,-47.05 475.53,-36.9 469.36,-28.14"/>
<polygon fill="#63b8ff" stroke="#63b8ff" points="472.24,-26.15 463.62,-20 466.52,-30.19 472.24,-26.15"/>
</a>
</g>
</g>
<!-- Node12 -->
<g id="Node000012" class="node">
<title>Node12</title>
<g id="a_Node000012"><a xlink:title=" ">
<polygon fill="#e0e0e0" stroke="#999999" points="555,-18.5 504.5,-18.5 504.5,0 555,0 555,-18.5"/>
<text text-anchor="middle" x="529.75" y="-5" font-family="Helvetica,sans-Serif" font-size="10.00">stddef.h</text>
</a>
</g>
</g>
<!-- Node9&#45;&gt;Node12 -->
<g id="edge11_Node000009_Node000012" class="edge">
<title>Node9&#45;&gt;Node12</title>
<g id="a_edge11_Node000009_Node000012"><a xlink:title=" ">
<path fill="none" stroke="#63b8ff" d="M499.69,-54.08C504.52,-47.05 511.48,-36.9 517.49,-28.14"/>
<polygon fill="#63b8ff" stroke="#63b8ff" points="520.29,-30.23 523.06,-20.01 514.52,-26.27 520.29,-30.23"/>
</a>
</g>
</g>
<!-- Node13 -->
<g id="Node000013" class="node">
<title>Node13</title>
<g id="a_Node000013"><a xlink:title=" ">
<polygon fill="#e0e0e0" stroke="#999999" points="630.38,-18.5 573.12,-18.5 573.12,0 630.38,0 630.38,-18.5"/>
<text text-anchor="middle" x="601.75" y="-5" font-family="Helvetica,sans-Serif" font-size="10.00">sys/stat.h</text>
</a>
</g>
</g>
<!-- Node9&#45;&gt;Node13 -->
<g id="edge12_Node000009_Node000013" class="edge">
<title>Node9&#45;&gt;Node13</title>
<g id="a_edge12_Node000009_Node000013"><a xlink:title=" ">
<path fill="none" stroke="#63b8ff" d="M511.58,-54.08C528.47,-45.87 554.08,-33.42 573.7,-23.89"/>
<polygon fill="#63b8ff" stroke="#63b8ff" points="575.06,-27.11 582.53,-19.59 572,-20.82 575.06,-27.11"/>
</a>
</g>
</g>
</g>
</svg>
