<?xml version="1.0" encoding="UTF-8" standalone="no"?>
<!DOCTYPE svg PUBLIC "-//W3C//DTD SVG 1.1//EN"
 "http://www.w3.org/Graphics/SVG/1.1/DTD/svg11.dtd">
<!-- Generated by graphviz version 12.1.0 (20240811.2233)
 -->
<!-- Title: src/plugins_datastore.h Pages: 1 -->
<svg width="442pt" height="136pt"
 viewBox="0.00 0.00 442.38 135.50" xmlns="http://www.w3.org/2000/svg" xmlns:xlink="http://www.w3.org/1999/xlink">
<g id="graph0" class="graph" transform="scale(1 1) rotate(0) translate(4 131.5)">
<title>src/plugins_datastore.h</title>
<!-- Node1 -->
<g id="Node000001" class="node">
<title>Node1</title>
<g id="a_Node000001"><a xlink:title="API for datastore plugins.">
<polygon fill="#999999" stroke="#666666" points="204.38,-127.5 87.12,-127.5 87.12,-109 204.38,-109 204.38,-127.5"/>
<text text-anchor="middle" x="145.75" y="-114" font-family="Helvetica,sans-Serif" font-size="10.00">src/plugins_datastore.h</text>
</a>
</g>
</g>
<!-- Node2 -->
<g id="Node000002" class="node">
<title>Node2</title>
<g id="a_Node000002"><a xlink:title=" ">
<polygon fill="#e0e0e0" stroke="#999999" points="47.5,-73 0,-73 0,-54.5 47.5,-54.5 47.5,-73"/>
<text text-anchor="middle" x="23.75" y="-59.5" font-family="Helvetica,sans-Serif" font-size="10.00">stdint.h</text>
</a>
</g>
</g>
<!-- Node1&#45;&gt;Node2 -->
<g id="edge1_Node000001_Node000002" class="edge">
<title>Node1&#45;&gt;Node2</title>
<g id="a_edge1_Node000001_Node000002"><a xlink:title=" ">
<path fill="none" stroke="#63b8ff" d="M125.6,-108.58C106.18,-100.22 76.52,-87.46 54.21,-77.86"/>
<polygon fill="#63b8ff" stroke="#63b8ff" points="55.89,-74.77 45.32,-74.03 53.12,-81.2 55.89,-74.77"/>
</a>
</g>
</g>
<!-- Node3 -->
<g id="Node000003" class="node">
<title>Node3</title>
<g id="a_Node000003"><a xlink:title=" ">
<polygon fill="#e0e0e0" stroke="#999999" points="131.5,-73 66,-73 66,-54.5 131.5,-54.5 131.5,-73"/>
<text text-anchor="middle" x="98.75" y="-59.5" font-family="Helvetica,sans-Serif" font-size="10.00">sys/types.h</text>
</a>
</g>
</g>
<!-- Node1&#45;&gt;Node3 -->
<g id="edge2_Node000001_Node000003" class="edge">
<title>Node1&#45;&gt;Node3</title>
<g id="a_edge2_Node000001_Node000003"><a xlink:title=" ">
<path fill="none" stroke="#63b8ff" d="M137.99,-108.58C131.49,-101.32 122.01,-90.73 114,-81.78"/>
<polygon fill="#63b8ff" stroke="#63b8ff" points="116.65,-79.5 107.38,-74.39 111.44,-84.17 116.65,-79.5"/>
</a>
</g>
</g>
<!-- Node4 -->
<g id="Node000004" class="node">
<title>Node4</title>
<g id="a_Node000004"><a xlink:title=" ">
<polygon fill="#e0e0e0" stroke="#999999" points="236.38,-73 149.12,-73 149.12,-54.5 236.38,-54.5 236.38,-73"/>
<text text-anchor="middle" x="192.75" y="-59.5" font-family="Helvetica,sans-Serif" font-size="10.00">libyang/libyang.h</text>
</a>
</g>
</g>
<!-- Node1&#45;&gt;Node4 -->
<g id="edge3_Node000001_Node000004" class="edge">
<title>Node1&#45;&gt;Node4</title>
<g id="a_edge3_Node000001_Node000004"><a xlink:title=" ">
<path fill="none" stroke="#63b8ff" d="M153.51,-108.58C160.01,-101.32 169.49,-90.73 177.5,-81.78"/>
<polygon fill="#63b8ff" stroke="#63b8ff" points="180.06,-84.17 184.12,-74.39 174.85,-79.5 180.06,-84.17"/>
</a>
</g>
</g>
<!-- Node5 -->
<g id="Node000005" class="node">
<title>Node5</title>
<g id="a_Node000005"><a xlink:href="sysrepo__types_8h.html" target="_top" xlink:title="public sysrepo types header">
<polygon fill="white" stroke="#666666" points="341,-73 254.5,-73 254.5,-54.5 341,-54.5 341,-73"/>
<text text-anchor="middle" x="297.75" y="-59.5" font-family="Helvetica,sans-Serif" font-size="10.00">sysrepo_types.h</text>
</a>
</g>
</g>
<!-- Node1&#45;&gt;Node5 -->
<g id="edge4_Node000001_Node000005" class="edge">
<title>Node1&#45;&gt;Node5</title>
<g id="a_edge4_Node000001_Node000005"><a xlink:title=" ">
<path fill="none" stroke="#63b8ff" d="M170.85,-108.58C195.71,-99.99 234.03,-86.76 262.05,-77.08"/>
<polygon fill="#63b8ff" stroke="#63b8ff" points="262.87,-80.5 271.18,-73.93 260.59,-73.88 262.87,-80.5"/>
</a>
</g>
</g>
<!-- Node6 -->
<g id="Node000006" class="node">
<title>Node6</title>
<g id="a_Node000006"><a xlink:title=" ">
<polygon fill="#e0e0e0" stroke="#999999" points="213.25,-18.5 170.25,-18.5 170.25,0 213.25,0 213.25,-18.5"/>
<text text-anchor="middle" x="191.75" y="-5" font-family="Helvetica,sans-Serif" font-size="10.00">fcntl.h</text>
</a>
</g>
</g>
<!-- Node5&#45;&gt;Node6 -->
<g id="edge5_Node000005_Node000006" class="edge">
<title>Node5&#45;&gt;Node6</title>
<g id="a_edge5_Node000005_Node000006"><a xlink:title=" ">
<path fill="none" stroke="#63b8ff" d="M280.25,-54.08C263.75,-45.91 238.77,-33.54 219.55,-24.02"/>
<polygon fill="#63b8ff" stroke="#63b8ff" points="221.15,-20.91 210.64,-19.6 218.04,-27.18 221.15,-20.91"/>
</a>
</g>
</g>
<!-- Node7 -->
<g id="Node000007" class="node">
<title>Node7</title>
<g id="a_Node000007"><a xlink:title=" ">
<polygon fill="#e0e0e0" stroke="#999999" points="290.12,-18.5 231.38,-18.5 231.38,0 290.12,0 290.12,-18.5"/>
<text text-anchor="middle" x="260.75" y="-5" font-family="Helvetica,sans-Serif" font-size="10.00">inttypes.h</text>
</a>
</g>
</g>
<!-- Node5&#45;&gt;Node7 -->
<g id="edge6_Node000005_Node000007" class="edge">
<title>Node5&#45;&gt;Node7</title>
<g id="a_edge6_Node000005_Node000007"><a xlink:title=" ">
<path fill="none" stroke="#63b8ff" d="M291.64,-54.08C286.68,-47.05 279.53,-36.9 273.36,-28.14"/>
<polygon fill="#63b8ff" stroke="#63b8ff" points="276.24,-26.15 267.62,-20 270.52,-30.19 276.24,-26.15"/>
</a>
</g>
</g>
<!-- Node8 -->
<g id="Node000008" class="node">
<title>Node8</title>
<g id="a_Node000008"><a xlink:title=" ">
<polygon fill="#e0e0e0" stroke="#999999" points="359,-18.5 308.5,-18.5 308.5,0 359,0 359,-18.5"/>
<text text-anchor="middle" x="333.75" y="-5" font-family="Helvetica,sans-Serif" font-size="10.00">stddef.h</text>
</a>
</g>
</g>
<!-- Node5&#45;&gt;Node8 -->
<g id="edge7_Node000005_Node000008" class="edge">
<title>Node5&#45;&gt;Node8</title>
<g id="a_edge7_Node000005_Node000008"><a xlink:title=" ">
<path fill="none" stroke="#63b8ff" d="M303.69,-54.08C308.52,-47.05 315.48,-36.9 321.49,-28.14"/>
<polygon fill="#63b8ff" stroke="#63b8ff" points="324.29,-30.23 327.06,-20.01 318.52,-26.27 324.29,-30.23"/>
</a>
</g>
</g>
<!-- Node9 -->
<g id="Node000009" class="node">
<title>Node9</title>
<g id="a_Node000009"><a xlink:title=" ">
<polygon fill="#e0e0e0" stroke="#999999" points="434.38,-18.5 377.12,-18.5 377.12,0 434.38,0 434.38,-18.5"/>
<text text-anchor="middle" x="405.75" y="-5" font-family="Helvetica,sans-Serif" font-size="10.00">sys/stat.h</text>
</a>
</g>
</g>
<!-- Node5&#45;&gt;Node9 -->
<g id="edge8_Node000005_Node000009" class="edge">
<title>Node5&#45;&gt;Node9</title>
<g id="a_edge8_Node000005_Node000009"><a xlink:title=" ">
<path fill="none" stroke="#63b8ff" d="M315.58,-54.08C332.47,-45.87 358.08,-33.42 377.7,-23.89"/>
<polygon fill="#63b8ff" stroke="#63b8ff" points="379.06,-27.11 386.53,-19.59 376,-20.82 379.06,-27.11"/>
</a>
</g>
</g>
</g>
</svg>
