<?xml version="1.0" encoding="UTF-8" standalone="no"?>
<!DOCTYPE svg PUBLIC "-//W3C//DTD SVG 1.1//EN"
 "http://www.w3.org/Graphics/SVG/1.1/DTD/svg11.dtd">
<!-- Generated by graphviz version 12.1.0 (20240811.2233)
 -->
<!-- Title: src/sysrepo_types.h Pages: 1 -->
<svg width="491pt" height="136pt"
 viewBox="0.00 0.00 491.38 135.50" xmlns="http://www.w3.org/2000/svg" xmlns:xlink="http://www.w3.org/1999/xlink">
<g id="graph0" class="graph" transform="scale(1 1) rotate(0) translate(4 131.5)">
<title>src/sysrepo_types.h</title>
<!-- Node1 -->
<g id="Node000001" class="node">
<title>Node1</title>
<g id="a_Node000001"><a xlink:title="public sysrepo types header">
<polygon fill="#999999" stroke="#666666" points="307.12,-127.5 204.12,-127.5 204.12,-109 307.12,-109 307.12,-127.5"/>
<text text-anchor="middle" x="255.62" y="-114" font-family="Helvetica,sans-Serif" font-size="10.00">src/sysrepo_types.h</text>
</a>
</g>
</g>
<!-- Node2 -->
<g id="Node000002" class="node">
<title>Node2</title>
<g id="a_Node000002"><a xlink:href="plugins__datastore_8h.html" target="_top" xlink:title="API for datastore plugins.">
<polygon fill="white" stroke="#666666" points="117.25,-73 0,-73 0,-54.5 117.25,-54.5 117.25,-73"/>
<text text-anchor="middle" x="58.62" y="-59.5" font-family="Helvetica,sans-Serif" font-size="10.00">src/plugins_datastore.h</text>
</a>
</g>
</g>
<!-- Node1&#45;&gt;Node2 -->
<g id="edge1_Node000001_Node000002" class="edge">
<title>Node1&#45;&gt;Node2</title>
<g id="a_edge1_Node000001_Node000002"><a xlink:title=" ">
<path fill="none" stroke="#63b8ff" d="M212.28,-105.7C175.75,-95.96 124.3,-82.25 91.2,-73.43"/>
<polygon fill="#63b8ff" stroke="#63b8ff" points="211.07,-109 221.63,-108.19 212.87,-102.23 211.07,-109"/>
</a>
</g>
</g>
<!-- Node3 -->
<g id="Node000003" class="node">
<title>Node3</title>
<g id="a_Node000003"><a xlink:href="plugins__notification_8h.html" target="_top" xlink:title="API for notification plugins.">
<polygon fill="white" stroke="#666666" points="259.62,-73 135.62,-73 135.62,-54.5 259.62,-54.5 259.62,-73"/>
<text text-anchor="middle" x="197.62" y="-59.5" font-family="Helvetica,sans-Serif" font-size="10.00">src/plugins_notification.h</text>
</a>
</g>
</g>
<!-- Node1&#45;&gt;Node3 -->
<g id="edge2_Node000001_Node000003" class="edge">
<title>Node1&#45;&gt;Node3</title>
<g id="a_edge2_Node000001_Node000003"><a xlink:title=" ">
<path fill="none" stroke="#63b8ff" d="M237.52,-100.86C227.42,-91.72 215.24,-80.7 207.02,-73.26"/>
<polygon fill="#63b8ff" stroke="#63b8ff" points="235.16,-103.45 244.93,-107.56 239.86,-98.26 235.16,-103.45"/>
</a>
</g>
</g>
<!-- Node4 -->
<g id="Node000004" class="node">
<title>Node4</title>
<g id="a_Node000004"><a xlink:href="sysrepo_8h.html" target="_top" xlink:title="public API sysrepo header">
<polygon fill="white" stroke="#666666" points="351.5,-73 277.75,-73 277.75,-54.5 351.5,-54.5 351.5,-73"/>
<text text-anchor="middle" x="314.62" y="-59.5" font-family="Helvetica,sans-Serif" font-size="10.00">src/sysrepo.h</text>
</a>
</g>
</g>
<!-- Node1&#45;&gt;Node4 -->
<g id="edge3_Node000001_Node000004" class="edge">
<title>Node1&#45;&gt;Node4</title>
<g id="a_edge3_Node000001_Node000004"><a xlink:title=" ">
<path fill="none" stroke="#63b8ff" d="M273.73,-101.14C284.07,-91.94 296.62,-80.77 305.06,-73.26"/>
<polygon fill="#63b8ff" stroke="#63b8ff" points="271.64,-98.31 266.5,-107.57 276.3,-103.54 271.64,-98.31"/>
</a>
</g>
</g>
<!-- Node8 -->
<g id="Node000008" class="node">
<title>Node8</title>
<g id="a_Node000008"><a xlink:href="error__format_8h.html" target="_top" xlink:title="Functions for simplified manipulation with callback errors.">
<polygon fill="white" stroke="#666666" points="483.38,-73 369.88,-73 369.88,-54.5 483.38,-54.5 483.38,-73"/>
<text text-anchor="middle" x="426.62" y="-59.5" font-family="Helvetica,sans-Serif" font-size="10.00">src/utils/error_format.h</text>
</a>
</g>
</g>
<!-- Node1&#45;&gt;Node8 -->
<g id="edge7_Node000001_Node000008" class="edge">
<title>Node1&#45;&gt;Node8</title>
<g id="a_edge7_Node000001_Node000008"><a xlink:title=" ">
<path fill="none" stroke="#63b8ff" d="M294.49,-105.32C326.11,-95.61 369.99,-82.14 398.35,-73.43"/>
<polygon fill="#63b8ff" stroke="#63b8ff" points="293.84,-101.86 285.31,-108.14 295.9,-108.55 293.84,-101.86"/>
</a>
</g>
</g>
<!-- Node5 -->
<g id="Node000005" class="node">
<title>Node5</title>
<g id="a_Node000005"><a xlink:href="netconf__acm_8h.html" target="_top" xlink:title="NACM functionality header.">
<polygon fill="white" stroke="#666666" points="251.62,-18.5 133.62,-18.5 133.62,0 251.62,0 251.62,-18.5"/>
<text text-anchor="middle" x="192.62" y="-5" font-family="Helvetica,sans-Serif" font-size="10.00">src/utils/netconf_acm.h</text>
</a>
</g>
</g>
<!-- Node4&#45;&gt;Node5 -->
<g id="edge4_Node000004_Node000005" class="edge">
<title>Node4&#45;&gt;Node5</title>
<g id="a_edge4_Node000004_Node000005"><a xlink:title=" ">
<path fill="none" stroke="#63b8ff" d="M284.2,-49.66C261.89,-40.06 232.24,-27.3 212.8,-18.93"/>
<polygon fill="#63b8ff" stroke="#63b8ff" points="282.52,-52.74 293.09,-53.48 285.29,-46.31 282.52,-52.74"/>
</a>
</g>
</g>
<!-- Node6 -->
<g id="Node000006" class="node">
<title>Node6</title>
<g id="a_Node000006"><a xlink:href="values_8h.html" target="_top" xlink:title="Functions for simplified manipulation with Sysrepo values.">
<polygon fill="white" stroke="#666666" points="359.38,-18.5 269.88,-18.5 269.88,0 359.38,0 359.38,-18.5"/>
<text text-anchor="middle" x="314.62" y="-5" font-family="Helvetica,sans-Serif" font-size="10.00">src/utils/values.h</text>
</a>
</g>
</g>
<!-- Node4&#45;&gt;Node6 -->
<g id="edge5_Node000004_Node000006" class="edge">
<title>Node4&#45;&gt;Node6</title>
<g id="a_edge5_Node000004_Node000006"><a xlink:title=" ">
<path fill="none" stroke="#63b8ff" d="M314.62,-42.64C314.62,-34.36 314.62,-25.21 314.62,-18.76"/>
<polygon fill="#63b8ff" stroke="#63b8ff" points="311.13,-42.57 314.63,-52.57 318.13,-42.57 311.13,-42.57"/>
</a>
</g>
</g>
<!-- Node7 -->
<g id="Node000007" class="node">
<title>Node7</title>
<g id="a_Node000007"><a xlink:href="xpath_8h.html" target="_top" xlink:title="Sysrepo helpers for node&#39;s address manipulation.">
<polygon fill="white" stroke="#666666" points="463.5,-18.5 377.75,-18.5 377.75,0 463.5,0 463.5,-18.5"/>
<text text-anchor="middle" x="420.62" y="-5" font-family="Helvetica,sans-Serif" font-size="10.00">src/utils/xpath.h</text>
</a>
</g>
</g>
<!-- Node4&#45;&gt;Node7 -->
<g id="edge6_Node000004_Node000007" class="edge">
<title>Node4&#45;&gt;Node7</title>
<g id="a_edge6_Node000004_Node000007"><a xlink:title=" ">
<path fill="none" stroke="#63b8ff" d="M342.39,-49C361.61,-39.48 386.59,-27.11 403.1,-18.93"/>
<polygon fill="#63b8ff" stroke="#63b8ff" points="340.89,-45.83 333.49,-53.41 344,-52.11 340.89,-45.83"/>
</a>
</g>
</g>
</g>
</svg>
