<?xml version="1.0" encoding="UTF-8" standalone="no"?>
<!DOCTYPE svg PUBLIC "-//W3C//DTD SVG 1.1//EN"
 "http://www.w3.org/Graphics/SVG/1.1/DTD/svg11.dtd">
<!-- Generated by graphviz version 12.1.0 (20240811.2233)
 -->
<!-- Title: src/sysrepo_types.h Pages: 1 -->
<svg width="272pt" height="81pt"
 viewBox="0.00 0.00 272.12 81.00" xmlns="http://www.w3.org/2000/svg" xmlns:xlink="http://www.w3.org/1999/xlink">

<svg id="main" version="1.1" xmlns="http://www.w3.org/2000/svg" xmlns:xlink="http://www.w3.org/1999/xlink" xml:space="preserve">

<style type="text/css"><![CDATA[
.node, .edge {opacity: 0.7;}
.node.selected, .edge.selected {opacity: 1;}
.edge:hover path { stroke: red; }
.edge:hover polygon { stroke: red; fill: red; }
]]></style>
<script type="application/ecmascript" xlink:href="svg.min.js"/>
<svg id="graph" class="graph">
<g id="graph0" class="graph" transform="scale(1 1) rotate(0) translate(4 77)">
<title>src/sysrepo_types.h</title>
<!-- Node1 -->
<g id="Node000001" class="node">
<title>Node1</title>
<g id="a_Node000001"><a xlink:title="public sysrepo types header">
<polygon fill="#999999" stroke="#666666" points="178,-73 75,-73 75,-54.5 178,-54.5 178,-73"/>
<text text-anchor="middle" x="126.5" y="-59.5" font-family="Helvetica,sans-Serif" font-size="10.00">src/sysrepo_types.h</text>
</a>
</g>
</g>
<!-- Node2 -->
<g id="Node000002" class="node">
<title>Node2</title>
<g id="a_Node000002"><a xlink:title=" ">
<polygon fill="#e0e0e0" stroke="#999999" points="43,-18.5 0,-18.5 0,0 43,0 43,-18.5"/>
<text text-anchor="middle" x="21.5" y="-5" font-family="Helvetica,sans-Serif" font-size="10.00">fcntl.h</text>
</a>
</g>
</g>
<!-- Node1&#45;&gt;Node2 -->
<g id="edge1_Node000001_Node000002" class="edge">
<title>Node1&#45;&gt;Node2</title>
<g id="a_edge1_Node000001_Node000002"><a xlink:title=" ">
<path fill="none" stroke="#63b8ff" d="M109.16,-54.08C92.82,-45.91 68.07,-33.54 49.04,-24.02"/>
<polygon fill="#63b8ff" stroke="#63b8ff" points="50.73,-20.95 40.22,-19.61 47.6,-27.21 50.73,-20.95"/>
</a>
</g>
</g>
<!-- Node3 -->
<g id="Node000003" class="node">
<title>Node3</title>
<g id="a_Node000003"><a xlink:title=" ">
<polygon fill="#e0e0e0" stroke="#999999" points="119.88,-18.5 61.12,-18.5 61.12,0 119.88,0 119.88,-18.5"/>
<text text-anchor="middle" x="90.5" y="-5" font-family="Helvetica,sans-Serif" font-size="10.00">inttypes.h</text>
</a>
</g>
</g>
<!-- Node1&#45;&gt;Node3 -->
<g id="edge2_Node000001_Node000003" class="edge">
<title>Node1&#45;&gt;Node3</title>
<g id="a_edge2_Node000001_Node000003"><a xlink:title=" ">
<path fill="none" stroke="#63b8ff" d="M120.56,-54.08C115.73,-47.05 108.77,-36.9 102.76,-28.14"/>
<polygon fill="#63b8ff" stroke="#63b8ff" points="105.73,-26.27 97.19,-20.01 99.96,-30.23 105.73,-26.27"/>
</a>
</g>
</g>
<!-- Node4 -->
<g id="Node000004" class="node">
<title>Node4</title>
<g id="a_Node000004"><a xlink:title=" ">
<polygon fill="#e0e0e0" stroke="#999999" points="188.75,-18.5 138.25,-18.5 138.25,0 188.75,0 188.75,-18.5"/>
<text text-anchor="middle" x="163.5" y="-5" font-family="Helvetica,sans-Serif" font-size="10.00">stddef.h</text>
</a>
</g>
</g>
<!-- Node1&#45;&gt;Node4 -->
<g id="edge3_Node000001_Node000004" class="edge">
<title>Node1&#45;&gt;Node4</title>
<g id="a_edge3_Node000001_Node000004"><a xlink:title=" ">
<path fill="none" stroke="#63b8ff" d="M132.61,-54.08C137.57,-47.05 144.72,-36.9 150.89,-28.14"/>
<polygon fill="#63b8ff" stroke="#63b8ff" points="153.73,-30.19 156.63,-20 148.01,-26.15 153.73,-30.19"/>
</a>
</g>
</g>
<!-- Node5 -->
<g id="Node000005" class="node">
<title>Node5</title>
<g id="a_Node000005"><a xlink:title=" ">
<polygon fill="#e0e0e0" stroke="#999999" points="264.12,-18.5 206.88,-18.5 206.88,0 264.12,0 264.12,-18.5"/>
<text text-anchor="middle" x="235.5" y="-5" font-family="Helvetica,sans-Serif" font-size="10.00">sys/stat.h</text>
</a>
</g>
</g>
<!-- Node1&#45;&gt;Node5 -->
<g id="edge4_Node000001_Node000005" class="edge">
<title>Node1&#45;&gt;Node5</title>
<g id="a_edge4_Node000001_Node000005"><a xlink:title=" ">
<path fill="none" stroke="#63b8ff" d="M144.5,-54.08C161.54,-45.87 187.39,-33.42 207.19,-23.89"/>
<polygon fill="#63b8ff" stroke="#63b8ff" points="208.62,-27.08 216.11,-19.59 205.58,-20.78 208.62,-27.08"/>
</a>
</g>
</g>
</g>
</svg>
</svg>

<style type='text/css'>
<![CDATA[
[data-mouse-over-selected='false'] { opacity: 0.7; }
[data-mouse-over-selected='true']  { opacity: 1.0; }
]]>
</style>
<script type="application/ecmascript"><![CDATA[
document.addEventListener('DOMContentLoaded', (event) => {
  highlightEdges();
  highlightAdjacentNodes();
});
]]></script>
</svg>
